<svg width="1920" height="1080" viewBox="0 0 1920 1080" fill="none" xmlns="http://www.w3.org/2000/svg">
  <rect width="1920" height="1080" fill="#FBF6EC"/>
  <g opacity="0.34" stroke="#C7A47D" stroke-width="2" stroke-linecap="round" stroke-linejoin="round">
    <path d="M0 170C72 145 145 132 224 141C325 152 414 121 505 104C626 82 735 110 848 129C994 153 1116 128 1254 122"/>
    <path d="M0 675C93 621 189 588 302 600C398 610 474 567 565 551C701 527 810 574 927 585C1034 595 1147 559 1248 585C1348 611 1444 646 1538 619"/>
    <path d="M0 1010H1400"/>
    <path d="M37 170V674M110 159V672M180 150V612M257 145V604M333 135V600M410 125V574M488 110V558M566 102V540M644 107V548M720 118V563M797 128V582M874 134V590M951 132V586M1028 128V588M1105 126V604M1182 126V622"/>

    <path d="M250 338L286 98L321 338H250Z"/>
    <path d="M271 107L286 38L301 107"/>
    <path d="M286 38V8M277 18H295"/>
    <path d="M226 338H344L332 462H238L226 338Z"/>
    <path d="M244 462H326V634H244V462Z"/>
    <path d="M264 386C264 354 309 354 309 386V430H264V386Z"/>
    <path d="M266 499H304V634H266V499Z"/>
    <path d="M247 348H323M241 426H329M256 462V634M286 462V634M316 462V634"/>

    <path d="M0 505H130V775H0V505Z"/>
    <path d="M28 534H65V586H28V534Z"/>
    <path d="M86 534H123V586H86V534Z"/>
    <path d="M28 622H65V674H28V622Z"/>
    <path d="M86 622H123V674H86V622Z"/>
    <path d="M0 505L42 454H130L155 505"/>

    <path d="M145 474H254V743H145V474Z"/>
    <path d="M166 510H207V562H166V510Z"/>
    <path d="M216 510H250V562H216V510Z"/>
    <path d="M166 599H207V651H166V599Z"/>
    <path d="M216 599H250V651H216V599Z"/>
    <path d="M145 474L193 421L254 474"/>

    <path d="M350 440H495V704H350V440Z"/>
    <path d="M374 480H410V532H374V480Z"/>
    <path d="M432 480H468V532H432V480Z"/>
    <path d="M374 574H410V626H374V574Z"/>
    <path d="M432 574H468V626H432V574Z"/>
    <path d="M350 440L421 380L495 440"/>

    <path d="M508 388H672V690H508V388Z"/>
    <path d="M532 430H574V482H532V430Z"/>
    <path d="M607 430H649V482H607V430Z"/>
    <path d="M532 530H574V582H532V530Z"/>
    <path d="M607 530H649V582H607V530Z"/>
    <path d="M508 388L590 326L672 388"/>

    <path d="M684 425H840V736H684V425Z"/>
    <path d="M708 465H750V517H708V465Z"/>
    <path d="M778 465H820V517H778V465Z"/>
    <path d="M708 566H750V618H708V566Z"/>
    <path d="M778 566H820V618H778V566Z"/>
    <path d="M684 425L763 358L840 425"/>

    <path d="M858 458H1022V770H858V458Z"/>
    <path d="M884 500H926V552H884V500Z"/>
    <path d="M954 500H996V552H954V500Z"/>
    <path d="M884 604H926V656H884V604Z"/>
    <path d="M954 604H996V656H954V604Z"/>
    <path d="M858 458L938 389L1022 458"/>

    <path d="M88 778L158 720H300L370 778"/>
    <path d="M166 778V1010M294 778V1010"/>
    <path d="M140 820H323M122 874H346M102 930H370M82 986H393"/>
    <path d="M425 732L505 675H690L770 732"/>
    <path d="M490 732V1010M685 732V1010"/>
    <path d="M462 780H720M438 842H744M412 904H770M388 966H795"/>
    <path d="M835 792L905 735H1110L1182 792"/>
    <path d="M900 792V1010M1102 792V1010"/>
    <path d="M870 842H1134M842 904H1164M814 966H1194"/>

    <path d="M0 844C95 792 194 762 305 782C418 802 505 756 612 736C756 709 866 762 1002 776C1116 788 1218 754 1344 793"/>
    <path d="M20 740C52 710 92 700 135 708M295 720C341 688 388 681 438 703M646 694C695 662 750 660 802 685M1015 730C1074 702 1130 704 1182 732"/>
    <path d="M35 962C96 928 165 925 240 960M440 940C516 895 597 896 676 936M878 944C945 913 1018 912 1090 946"/>
  </g>
  <rect width="1920" height="1080" fill="url(#fade)"/>
  <defs>
    <linearGradient id="fade" x1="0" y1="500" x2="1600" y2="500" gradientUnits="userSpaceOnUse">
      <stop offset="0" stop-color="#FBF6EC" stop-opacity="0"/>
      <stop offset="0.72" stop-color="#FBF6EC" stop-opacity="0.72"/>
      <stop offset="1" stop-color="#FBF6EC"/>
    </linearGradient>
  </defs>
</svg>
